HIERARCHY
ROOT root
{
	OFFSET	0	13.1	24.9
	CHANNELS 6  Xposition Yposition Zposition Xrotation Yrotation Zrotation
	JOINT spine_1
	{
		OFFSET	0	9.99999	0
		CHANNELS 3  Xrotation Yrotation Zrotation
		JOINT spine_2
		{
			OFFSET	0	112	-10
			CHANNELS 3  Xrotation Yrotation Zrotation
			JOINT spine_3
			{
				OFFSET	0	206.5	19.3
				CHANNELS 3  Xrotation Yrotation Zrotation
				JOINT spine_4
				{
					OFFSET	0	110.4	14.6
					CHANNELS 3  Xrotation Yrotation Zrotation
					JOINT neck_1
					{
						OFFSET	0	71.8	-50.3
						CHANNELS 3  Xrotation Yrotation Zrotation
						JOINT neck_2
						{
							OFFSET	0	86.2	-25.8
							CHANNELS 3  Xrotation Yrotation Zrotation
							JOINT head_ee
							{
								OFFSET	0	179.8	-8.7
								CHANNELS 3  Xrotation Yrotation Zrotation
								End Site
								{
									OFFSET	1	0	0
								}
							}
						}
					}
					JOINT left_clavicle
					{
						OFFSET	-43.2	22.4	-70.8
						CHANNELS 3  Xrotation Yrotation Zrotation
						JOINT left_shoulder
						{
							OFFSET	-93.9	-5.79999	48.7
							CHANNELS 3  Xrotation Yrotation Zrotation
							JOINT left_elbow
							{
								OFFSET	-291.4	-30.8	15.2
								CHANNELS 3  Xrotation Yrotation Zrotation
								JOINT left_lowarm_twist
								{
									OFFSET	-110.7	-3.89999	13.6
									CHANNELS 3  Xrotation Yrotation Zrotation
									JOINT left_hand
									{
										OFFSET	-110.7	-3.89999	13.6
										CHANNELS 3  Xrotation Yrotation Zrotation
										JOINT left_ee
										{
											OFFSET	-80.8	-5.10001	12.1
											CHANNELS 3  Xrotation Yrotation Zrotation
											End Site
											{
												OFFSET	1	0	0
											}
										}
									}
								}
							}
						}
					}
					JOINT right_clavicle
					{
						OFFSET	43.2	22.4	-70.8
						CHANNELS 3  Xrotation Yrotation Zrotation
						JOINT right_shoulder
						{
							OFFSET	93.9	-5.79999	48.7
							CHANNELS 3  Xrotation Yrotation Zrotation
							JOINT right_elbow
							{
								OFFSET	291.4	-30.8	15.2
								CHANNELS 3  Xrotation Yrotation Zrotation
								JOINT right_lowarm_twist
								{
									OFFSET	110.7	-3.89999	13.6
									CHANNELS 3  Xrotation Yrotation Zrotation
									JOINT right_hand
									{
										OFFSET	110.7	-3.89999	13.6
										CHANNELS 3  Xrotation Yrotation Zrotation
										JOINT right_ee
										{
											OFFSET	80.8	-5.10001	12.1
											CHANNELS 3  Xrotation Yrotation Zrotation
											End Site
											{
												OFFSET	1	0	0
											}
										}
									}
								}
							}
						}
					}
				}
			}
		}
	}
	JOINT left_hip
	{
		OFFSET	-82.8	-127.5	0.300001
		CHANNELS 3  Xrotation Yrotation Zrotation
		JOINT left_knee
		{
			OFFSET	-28.2	-396.7	2.2
			CHANNELS 3  Xrotation Yrotation Zrotation
			JOINT left_ankle
			{
				OFFSET	-11.7	-411.3	35.4
				CHANNELS 3  Xrotation Yrotation Zrotation
				JOINT left_toes
				{
					OFFSET	0	-60	-88.6
					CHANNELS 3  Xrotation Yrotation Zrotation
					JOINT left_foot_ee
					{
						OFFSET	-22.5	-16.5	-42.2
						CHANNELS 3  Xrotation Yrotation Zrotation
						End Site
						{
							OFFSET	1	0	0
						}
					}
				}
			}
		}
	}
	JOINT right_hip
	{
		OFFSET	82.8	-127.5	0.300001
		CHANNELS 3  Xrotation Yrotation Zrotation
		JOINT right_knee
		{
			OFFSET	28.2	-396.7	2.2
			CHANNELS 3  Xrotation Yrotation Zrotation
			JOINT right_ankle
			{
				OFFSET	11.7	-411.3	35.4
				CHANNELS 3  Xrotation Yrotation Zrotation
				JOINT right_toes
				{
					OFFSET	0	-60	-88.6
					CHANNELS 3  Xrotation Yrotation Zrotation
					JOINT right_foot_ee
					{
						OFFSET	22.5	-16.5	-42.2
						CHANNELS 3  Xrotation Yrotation Zrotation
						End Site
						{
							OFFSET	1	0	0
						}
					}
				}
			}
		}
	}
}
MOTION
Frames: 13
Frame Time: 0.02
3548.04074694 730.991 -1524.14359538 -85.1358077448 80.9612165629 77.4445388316 2.17026 0.719839 2.84738 2.17461 0.537272 2.88737 2.20158 0.0315206 2.93672 2.18988 0.494728 2.89495 -2.36975 4.99188 -0.98289 -2.31548 9.81024 -0.350762 -0.0 0.0 -0.0 -3.09992 -7.84356 -7.32606 -22.6145 -43.3291 61.9697 0.921329 -24.5316 0.20031 -5.99837 -0.249567 0.72469 1.75776 3.44582 13.1826 -0.0 0.0 -0.0 10.0023 -6.96057 -19.1697 -8.22986 19.6108 -62.6837 0.527866 14.6543 -0.0678759 40.0464 0.351679 5.00088 1.93099 3.62914 -11.5346 0.0 0.0 0.0 38.276 -16.3018 5.72331 -46.1714 -0.90531 6.83964 5.26893 5.41993 -0.76122 -2.13563 0.0 0.0 -0.0 0.0 -0.0 9.09587 -3.62265 1.98399 -14.6782 -0.32106 -2.22351 33.0394 -0.950637 4.21916 -9.711 0.0 0.0 0.0 0.0 0.0 
3541.146754 737.597 -1526.34197149 -99.1226835378 80.956283116 91.4132608116 2.16186 0.78032 2.90117 2.16635 0.594212 2.94489 2.19682 0.0775183 3.00319 2.18466 0.550635 2.95334 -3.2606 4.59824 -0.177987 -3.23132 8.50765 0.49761 -0.0 0.0 -0.0 -2.87479 -8.79924 -7.00582 -24.1922 -43.3663 62.5489 0.867827 -23.2624 0.178635 -5.61302 -0.231261 0.678943 2.02047 4.13692 15.2401 -0.0 0.0 -0.0 10.0204 -7.94822 -19.1108 -7.63542 19.6162 -62.6291 0.573422 15.8577 -0.0798637 39.8263 0.340261 4.97516 1.73175 4.47977 -9.81535 0.0 0.0 0.0 41.6723 -14.9547 6.14483 -51.1321 -1.32219 7.47931 4.98912 4.79027 -0.72182 -1.29657 0.0 0.0 -0.0 0.0 -0.0 8.66081 -3.54294 1.84206 -14.7311 -0.321181 -2.23164 36.2029 0.287947 4.53614 -10.5033 0.0 0.0 0.0 0.0 0.0 
3509.39990108 729.909 -1524.51112429 -146.974706388 72.0431459903 139.533060216 2.56699 0.913471 3.02878 2.5718 0.718985 3.0807 2.60985 0.199975 3.15709 2.59662 0.69583 3.08601 -2.12423 4.17795 0.150266 -2.09677 7.43241 0.713664 -0.0 0.0 -0.0 -3.12206 -8.84781 -7.53109 -30.5042 -43.0202 62.4508 0.859336 -23.0587 0.175296 -4.62833 -0.185888 0.561501 2.41956 4.19699 18.0172 -0.0 0.0 -0.0 9.99505 -8.58181 -18.999 -4.51996 19.7023 -60.8683 0.853553 22.9197 -0.173037 39.7701 0.337357 4.96857 1.58024 3.57294 -9.15828 0.0 0.0 0.0 41.8987 -10.7904 6.65741 -46.5017 -0.931323 6.88331 0.381834 0.141185 -0.0564121 -3.1246 0.0 0.0 -0.0 0.0 -0.0 7.50926 -2.83294 2.04105 -14.125 -0.319352 -2.13865 35.3999 0.125892 4.45861 -9.59899 0.0 0.0 0.0 0.0 0.0 
3509.5671514 729.909 -1524.72881627 -146.648723609 72.2038915837 139.190541198 2.56699 0.913471 3.02878 2.5718 0.718985 3.0807 2.60985 0.199975 3.15709 2.59662 0.69583 3.08601 -2.12423 4.17795 0.150266 -2.09677 7.43241 0.713664 -0.0 0.0 -0.0 -3.12206 -8.84781 -7.53109 -30.5042 -43.0202 62.4508 0.859336 -23.0587 0.175296 -4.62833 -0.185888 0.561501 2.41956 4.19699 18.0172 -0.0 0.0 -0.0 9.99505 -8.58181 -18.999 -4.51996 19.7023 -60.8683 0.853553 22.9197 -0.173037 39.7701 0.337357 4.96857 1.58024 3.57294 -9.15828 0.0 0.0 0.0 41.8987 -10.7904 6.65741 -46.5017 -0.931323 6.88331 0.381834 0.141185 -0.0564121 -3.1246 0.0 0.0 -0.0 0.0 -0.0 7.50926 -2.83294 2.04105 -14.125 -0.319352 -2.13865 35.3999 0.125892 4.45861 -9.59899 0.0 0.0 0.0 0.0 0.0 
3499.5691109 727.215 -1518.93043892 -156.842329838 65.5564644906 148.70737045 2.71431 0.899644 3.17082 2.71963 0.696162 3.22157 2.75782 0.16266 3.29184 2.74334 0.68023 3.22496 -1.70113 3.50051 0.216919 -1.68112 6.13658 0.675378 -0.0 0.0 -0.0 -3.34653 -7.89541 -7.84856 -35.8042 -42.6174 62.1149 0.931785 -24.7767 0.204672 -3.49638 -0.136237 0.42557 2.78927 4.06578 20.5616 -0.0 0.0 -0.0 9.97466 -9.48104 -18.8668 -3.17413 19.4824 -58.821 1.19663 30.6573 -0.328016 39.7746 0.337588 4.96909 1.28799 1.51475 -8.01981 0.0 0.0 0.0 41.6998 -4.91114 6.67041 -39.7158 -0.448784 5.95846 -6.44304 -5.14066 0.983614 -5.82457 0.0 0.0 -0.0 0.0 -0.0 5.61347 -2.25828 2.16084 -11.4937 -0.300019 -1.73543 33.2361 -0.152809 4.2443 -8.6928 0.0 0.0 0.0 0.0 0.0 
3491.5221106 730.644 -1519.10644909 -158.276043731 63.9969839819 150.381666009 2.60719 0.832081 3.14434 2.61247 0.630418 3.19085 2.64676 0.0963757 3.25104 2.63253 0.608342 3.19512 -1.95844 3.06816 0.24114 -1.94405 5.34781 0.655611 -0.0 0.0 -0.0 -3.54471 -7.18783 -8.14524 -38.6162 -42.2615 61.7156 1.00477 -26.4606 0.236233 -2.46979 -0.0935422 0.301477 3.01613 3.91314 22.1196 -0.0 0.0 -0.0 9.87858 -10.1666 -18.6133 -2.67301 19.3993 -57.5253 1.52046 36.9843 -0.508534 39.6575 0.331568 4.95539 1.06615 -0.193718 -7.21795 0.0 0.0 0.0 43.4987 -0.62907 6.17135 -34.2056 -0.139855 5.17043 -12.0736 -8.89065 1.89332 -8.14654 0.0 0.0 -0.0 0.0 -0.0 3.93752 -1.59546 1.34359 -9.62805 -0.275103 -1.45026 31.4403 -0.37586 4.05936 -7.92985 0.0 0.0 0.0 0.0 0.0 
3476.830311 736.817 -1518.53056965 -159.497250572 62.8728521519 152.316330445 2.57907 0.841128 3.00929 2.58387 0.648026 3.05666 2.61777 0.13429 3.12165 2.60472 0.625378 3.06137 -2.20877 2.7812 0.0785184 -2.1967 4.9669 0.455997 -0.0 0.0 -0.0 -3.79685 -6.718 -8.59031 -39.8152 -42.0426 61.8753 0.984715 -26.0026 0.227368 -2.47862 -0.0939001 0.302548 3.07982 4.58433 22.8259 -0.0 0.0 -0.0 9.92493 -10.1169 -18.7051 -2.03356 19.6113 -57.2849 1.59229 38.2626 -0.552384 39.4951 0.32326 4.93635 1.03395 -0.354256 -7.06646 0.0 0.0 0.0 43.8206 -0.220027 6.60084 -32.355 -0.0533189 4.89969 -12.9476 -9.9149 2.04432 -8.68272 0.0 0.0 -0.0 0.0 -0.0 3.24806 -1.88504 0.424518 -8.73699 -0.259928 -1.31437 31.2103 -0.846354 4.03229 -7.97425 0.0 0.0 0.0 0.0 0.0 
3464.28587684 739.882 -1518.16886066 -159.566810698 61.8818888493 152.457401652 2.80776 0.850578 3.06271 2.81274 0.654063 3.11057 2.8472 0.144077 3.17526 2.8337 0.643497 3.11277 -2.46221 2.40744 -0.147795 -2.45237 4.47619 0.176969 -0.0 0.0 -0.0 -3.95061 -6.57063 -8.88461 -40.67 -41.9945 62.026 0.968153 -25.6217 0.220157 -2.491 -0.0944021 0.304049 3.16428 5.54328 23.7847 -0.0 0.0 -0.0 9.98357 -10.0387 -18.8231 -1.17988 19.95 -56.7154 1.66049 39.4361 -0.59517 39.2619 0.31143 4.90898 0.977656 -0.611752 -6.79253 0.0 0.0 0.0 44.0894 0.266448 7.09106 -29.7553 0.0533628 4.51503 -14.2042 -11.2512 2.264 -9.43484 0.0 0.0 -0.0 0.0 -0.0 2.15642 -2.34482 -0.454288 -7.48698 -0.235082 -1.12417 30.8422 -1.52434 3.98977 -8.03562 0.0 0.0 0.0 0.0 0.0 
3460.74565638 736.632 -1521.26024074 -159.945817616 61.2614125103 153.226925162 3.08337 0.819612 3.0479 3.08833 0.624102 3.09382 3.12055 0.132223 3.15331 3.10723 0.62833 3.09296 -2.83311 1.87694 -0.47341 -2.82543 3.77698 -0.225416 -0.0 0.0 -0.0 -4.11407 -6.75095 -9.25669 -41.1094 -42.1652 62.21 0.953448 -25.2814 0.213837 -2.50851 -0.0951124 0.306172 3.27717 6.90104 25.0862 -0.0 0.0 -0.0 10.1368 -9.97441 -19.1171 -0.281906 20.4045 -56.0063 1.75275 40.9628 -0.65472 38.9401 0.295285 4.87112 0.896461 -0.988566 -6.40052 0.0 0.0 0.0 43.9848 0.818697 7.66913 -26.4451 0.163729 4.01908 -15.9771 -13.1135 2.58224 -10.5097 0.0 0.0 -0.0 0.0 -0.0 1.2598 -2.8987 -1.49577 -5.60982 -0.189986 -0.839637 30.2684 -2.50062 3.92442 -8.15044 0.0 0.0 0.0 0.0 0.0 
3453.09166668 730.05 -1520.71808252 -159.987989818 60.57373022 153.355874844 3.18015 0.759052 3.0718 3.18523 0.562145 3.11382 3.21409 0.0729739 3.16326 3.20058 0.571392 3.11213 -3.41819 1.15548 -0.885465 -3.41198 2.78994 -0.74289 -0.0 0.0 -0.0 -4.44074 -6.93131 -9.97179 -41.9629 -42.2774 62.2945 0.93225 -24.7876 0.204867 -2.532 -0.0960662 0.309019 3.43285 8.84231 26.8868 -0.0 0.0 -0.0 10.2902 -9.95338 -19.4077 0.774564 20.8472 -54.668 1.87367 42.8619 -0.735504 38.4809 0.272618 4.81695 0.778458 -1.51795 -5.82531 0.0 0.0 0.0 44.7911 1.40319 7.87955 -21.6944 0.271657 3.29824 -18.4731 -15.7066 3.04834 -12.0384 0.0 0.0 -0.0 0.0 -0.0 -0.405007 -3.71951 -2.19843 -3.37383 -0.124134 -0.502823 29.3207 -4.03947 3.81773 -8.33951 0.0 0.0 0.0 0.0 0.0 
3441.92365693 730.776 -1519.9232127 -160.752896044 60.9116518119 154.4823308 3.16559 0.740856 3.09624 3.17076 0.542433 3.13705 3.19875 0.0490148 3.18318 3.18504 0.550874 3.13558 -4.29848 0.16243 -1.49575 -4.29081 1.43669 -1.5086 -0.0 0.0 -0.0 -4.60339 -6.79766 -10.2885 -42.005 -42.6097 63.208 0.922955 -24.5698 0.200986 -2.48867 -0.0943073 0.303766 3.65012 11.518 29.3478 -0.0 0.0 -0.0 10.5193 -9.94684 -19.8404 1.3279 21.3285 -54.3019 2.04215 45.3257 -0.852768 37.8481 0.242095 4.74201 0.623537 -2.27769 -5.10007 0.0 0.0 0.0 46.0532 1.96538 8.58247 -15.7677 0.322027 2.39068 -21.9714 -19.2758 3.74106 -14.2199 0.0 0.0 -0.0 0.0 -0.0 -2.73618 -4.76471 -3.5667 -0.242283 -0.00990036 -0.0358626 27.9439 -6.1849 3.66433 -8.61087 0.0 0.0 0.0 0.0 0.0 
3441.76164061 730.776 -1519.44540097 -160.874392938 60.7166264728 154.621495517 3.16559 0.740856 3.09624 3.17076 0.542433 3.13705 3.19875 0.0490148 3.18318 3.18504 0.550874 3.13558 -4.29848 0.16243 -1.49575 -4.29081 1.43669 -1.5086 -0.0 0.0 -0.0 -4.60339 -6.79766 -10.2885 -42.005 -42.6097 63.208 0.922955 -24.5698 0.200986 -2.48867 -0.0943073 0.303766 3.65012 11.518 29.3478 -0.0 0.0 -0.0 10.5193 -9.94684 -19.8404 1.3279 21.3285 -54.3019 2.04215 45.3257 -0.852768 37.8481 0.242095 4.74201 0.623537 -2.27769 -5.10007 0.0 0.0 0.0 46.0532 1.96538 8.58247 -15.7677 0.322027 2.39068 -21.9714 -19.2758 3.74106 -14.2199 0.0 0.0 -0.0 0.0 -0.0 -2.73618 -4.76471 -3.5667 -0.242283 -0.00990036 -0.0358626 27.9439 -6.1849 3.66433 -8.61087 0.0 0.0 0.0 0.0 0.0 
3434.77480688 730.061 -1518.33087659 -161.016644557 59.9170905185 155.260918968 3.12171 0.705304 3.10897 3.12694 0.506144 3.1475 3.15307 0.00894268 3.18788 3.13926 0.512044 3.14655 -4.64376 -0.577973 -2.31126 -4.62813 0.689176 -2.46073 -0.0 0.0 -0.0 -4.84795 -6.24895 -10.6993 -42.5319 -42.0314 62.8695 0.9145 -24.371 0.197484 -2.72481 -0.103941 0.332374 3.58738 11.9631 29.0198 -0.0 0.0 -0.0 10.7864 -10.1045 -20.3262 2.00232 21.7483 -53.7302 2.12708 46.4919 -0.913774 37.3727 0.219707 4.68549 0.318124 -3.57332 -3.60111 0.0 0.0 0.0 44.4357 1.64751 8.94654 -11.8194 0.303416 1.78528 -21.0971 -21.5106 3.67094 -14.4845 0.0 0.0 -0.0 0.0 -0.0 -2.76878 -6.16074 -4.62828 1.14771 0.0489599 0.169311 27.2149 -9.13205 3.58709 -9.30312 0.0 0.0 0.0 0.0 0.0 
